<svg width="91" height="35" viewBox="0 0 91 35" fill="none" xmlns="http://www.w3.org/2000/svg">
<path d="M62.4163 9.85106L58.0996 3.94042L61.2496 0H69.183L62.4163 9.85106Z" fill="#1E1E1E"/>
<path d="M69.183 23.2931L62.4163 13.6738L58.0996 19.1209L61.3663 23.2931H69.183Z" fill="#1E1E1E"/>
<path d="M84.4659 23.4107V6.02653H90.9992V0H70.6992V6.02653H77.4659V23.4107H84.4659Z" fill="#1E1E1E"/>
<path d="M0 23.179V0H6.53334L15.1667 12.0531V0H43.05V6.02653H21.9333V23.179H15.1667L6.3 11.1604V23.179H0Z" fill="#1E1E1E"/>
<path d="M42.9333 17.6173V23.1802H24.5V8.3457H36.6333V14.3722H30.8V17.6173H42.9333Z" fill="#1E1E1E"/>
<path d="M52.4992 0H45.0326H44.7992L51.0992 8.34442H39.1992V14.371H51.0992L45.0326 23.4107H52.2659L60.6659 11.5895L52.4992 0Z" fill="#1E1E1E"/>
<path d="M6.53776 31.1521C6.53776 31.4681 6.45877 31.7378 6.30078 31.9615C6.14523 32.1826 5.92648 32.3516 5.64453 32.4682C5.36259 32.5849 5.03082 32.6432 4.64922 32.6432C4.44748 32.6432 4.25669 32.6335 4.07682 32.6141C3.89696 32.5946 3.73168 32.5667 3.58099 32.5302C3.4303 32.4937 3.29783 32.4488 3.18359 32.3953V31.801C3.36589 31.8764 3.58828 31.9469 3.85078 32.0125C4.11328 32.0757 4.38794 32.1073 4.67474 32.1073C4.9421 32.1073 5.16814 32.072 5.35287 32.0016C5.53759 31.9286 5.67735 31.8253 5.77214 31.6917C5.86936 31.5556 5.91797 31.3927 5.91797 31.2031C5.91797 31.0208 5.87787 30.8689 5.79766 30.7474C5.71745 30.6234 5.58377 30.5116 5.39662 30.412C5.21189 30.3099 4.95912 30.2017 4.63828 30.0875C4.41224 30.0073 4.21294 29.9198 4.04037 29.825C3.8678 29.7278 3.72318 29.6184 3.60651 29.4969C3.48984 29.3753 3.40113 29.2344 3.34036 29.074C3.28203 28.9135 3.25286 28.73 3.25286 28.5234C3.25286 28.2391 3.32457 27.996 3.46797 27.7943C3.6138 27.5901 3.81432 27.4345 4.06953 27.3276C4.32717 27.2182 4.62248 27.1635 4.95547 27.1635C5.23985 27.1635 5.50235 27.1903 5.74297 27.2437C5.98603 27.2972 6.20842 27.3689 6.41016 27.4589L6.21693 27.9911C6.02492 27.9109 5.82075 27.8441 5.60443 27.7906C5.39054 27.7371 5.16936 27.7104 4.94089 27.7104C4.71241 27.7104 4.51919 27.7444 4.3612 27.8125C4.20564 27.8781 4.08655 27.9717 4.00391 28.0932C3.92127 28.2148 3.87995 28.3594 3.87995 28.5271C3.87995 28.7142 3.91884 28.8698 3.99662 28.9937C4.07682 29.1177 4.20321 29.2283 4.37578 29.3255C4.55078 29.4203 4.78169 29.52 5.06849 29.6245C5.38203 29.7387 5.64818 29.8602 5.86693 29.9891C6.08568 30.1154 6.25217 30.271 6.36641 30.4557C6.48064 30.638 6.53776 30.8701 6.53776 31.1521ZM23.6755 32.5703H23.0521V27.787H21.375V27.2401H25.3453V27.787H23.6755V32.5703ZM45.1846 29.8979C45.1846 30.3087 45.1324 30.683 45.0279 31.0208C44.9234 31.3562 44.7678 31.6455 44.5612 31.8885C44.357 32.1292 44.103 32.3151 43.7992 32.4464C43.4954 32.5776 43.143 32.6432 42.7419 32.6432C42.3287 32.6432 41.9678 32.5776 41.6591 32.4464C41.3529 32.3151 41.0977 32.128 40.8935 31.8849C40.6918 31.6418 40.5398 31.3514 40.4378 31.0135C40.3381 30.6757 40.2883 30.3014 40.2883 29.8906C40.2883 29.3462 40.3782 28.8686 40.5581 28.4578C40.7379 28.047 41.0102 27.7274 41.3747 27.499C41.7418 27.2705 42.2011 27.1562 42.7529 27.1562C43.2803 27.1562 43.7239 27.2693 44.0836 27.4953C44.4458 27.7214 44.7192 28.0398 44.9039 28.4505C45.0911 28.8589 45.1846 29.3413 45.1846 29.8979ZM40.9409 29.8979C40.9409 30.35 41.0053 30.7413 41.1341 31.0719C41.2629 31.4024 41.4598 31.6576 41.7247 31.8375C41.9921 32.0174 42.3312 32.1073 42.7419 32.1073C43.1551 32.1073 43.493 32.0174 43.7555 31.8375C44.0204 31.6576 44.2161 31.4024 44.3425 31.0719C44.4688 30.7413 44.532 30.35 44.532 29.8979C44.532 29.2101 44.3874 28.6729 44.0982 28.2865C43.8114 27.8976 43.3629 27.7031 42.7529 27.7031C42.3397 27.7031 41.9994 27.7918 41.732 27.9693C41.4647 28.1467 41.2654 28.3995 41.1341 28.7276C41.0053 29.0533 40.9409 29.4434 40.9409 29.8979ZM62.224 27.2401C62.6615 27.2401 63.0224 27.2948 63.3068 27.4042C63.5936 27.5111 63.8075 27.6752 63.9484 27.8964C64.0894 28.1175 64.1599 28.3995 64.1599 28.7422C64.1599 29.0241 64.1089 29.2599 64.0068 29.4495C63.9047 29.6366 63.771 29.7885 63.6057 29.9052C63.4405 30.0219 63.2642 30.1118 63.0771 30.175L64.5391 32.5703H63.8172L62.512 30.3464H61.4037V32.5703H60.7839V27.2401H62.224ZM62.1875 27.776H61.4037V29.8214H62.2495C62.6846 29.8214 63.0042 29.7326 63.2083 29.5552C63.4149 29.3778 63.5182 29.1165 63.5182 28.7714C63.5182 28.4092 63.4089 28.1528 63.1901 28.0021C62.9738 27.8514 62.6396 27.776 62.1875 27.776ZM82.7706 32.5703H79.8029V27.2401H82.7706V27.787H80.4227V29.5115H82.6357V30.051H80.4227V32.0234H82.7706V32.5703Z" fill="#FF0101"/>
</svg>
