<svg width="246" height="42" viewBox="0 0 246 42" fill="none" xmlns="http://www.w3.org/2000/svg">
<path d="M234.059 15.1608C236.76 17.0984 240.069 18.2384 243.642 18.2384V11.3373C242.966 11.3375 242.291 11.2667 241.63 11.126V16.5581C238.056 16.5581 234.748 15.4181 232.047 13.4807V27.5638C232.047 34.6089 226.356 40.3196 219.336 40.3196C216.717 40.3196 214.283 39.525 212.26 38.1621C214.568 40.5305 217.787 41.9997 221.348 41.9997C228.368 41.9997 234.059 36.289 234.059 29.2436V15.1608H234.059ZM236.542 8.19849C235.161 6.68515 234.255 4.72944 234.059 2.56731V1.67969H232.152C232.632 4.42775 234.269 6.77553 236.542 8.19849ZM216.7 32.7559C215.929 31.7412 215.512 30.4998 215.514 29.2234C215.514 26.0013 218.117 23.3887 221.328 23.3887C221.927 23.3886 222.522 23.4805 223.092 23.6622V16.6069C222.426 16.5152 221.753 16.4763 221.08 16.4905V21.982C220.51 21.8004 219.915 21.7082 219.316 21.7087C216.105 21.7087 213.502 24.321 213.502 27.5436C213.502 29.8222 214.803 31.7949 216.7 32.7559Z" fill="#FF004F"/>
<path d="M232.046 13.4806C234.748 15.418 238.056 16.558 241.629 16.558V11.1259C239.635 10.6995 237.869 9.65346 236.541 8.19849C234.269 6.77538 232.632 4.4276 232.152 1.67969H227.142V29.2433C227.131 32.4567 224.532 35.0586 221.328 35.0586C219.439 35.0586 217.762 34.1552 216.699 32.7559C214.802 31.7949 213.501 29.8221 213.501 27.5437C213.501 24.3215 216.104 21.7089 219.315 21.7089C219.93 21.7089 220.524 21.805 221.08 21.9822V16.4907C214.183 16.6337 208.637 22.2886 208.637 29.2435C208.637 32.7153 210.018 35.8626 212.26 38.1622C214.282 39.5249 216.717 40.3197 219.336 40.3197C226.356 40.3197 232.046 34.6087 232.046 27.5638V13.4806H232.046Z" fill="#1E1E1E"/>
<path d="M241.629 11.1262V9.65735C239.831 9.66009 238.068 9.15458 236.542 8.19863C237.892 9.68286 239.671 10.7063 241.629 11.1262ZM232.152 1.67997C232.106 1.41734 232.071 1.15299 232.046 0.887624V0H225.13V27.5639C225.118 30.7768 222.52 33.3787 219.315 33.3787C218.374 33.3787 217.486 33.1546 216.699 32.7563C217.762 34.1555 219.44 35.0587 221.328 35.0587C224.532 35.0587 227.131 32.4571 227.142 29.2437V1.67997H232.152ZM221.08 16.491V14.9273C220.502 14.848 219.92 14.8082 219.336 14.8085C212.316 14.8084 206.625 20.5194 206.625 27.5639C206.625 31.9804 208.862 35.8727 212.26 38.1622C210.019 35.8627 208.638 32.7153 208.638 29.2436C208.638 22.2889 214.184 16.6339 221.08 16.491Z" fill="#00F2EA"/>
<g clip-path="url(#clip0_651_11747)">
<path d="M157 42C168.598 42 178 32.598 178 21C178 9.40202 168.598 0 157 0C145.402 0 136 9.40202 136 21C136 32.598 145.402 42 157 42Z" fill="url(#paint0_linear_651_11747)"/>
<path fill-rule="evenodd" clip-rule="evenodd" d="M145.506 20.7789C151.628 18.1117 155.71 16.3533 157.753 15.5037C163.584 13.078 164.796 12.6566 165.586 12.6427C165.76 12.6397 166.148 12.6827 166.4 12.8869C166.612 13.0593 166.671 13.2921 166.699 13.4556C166.727 13.619 166.762 13.9914 166.734 14.2823C166.418 17.6029 165.05 25.6611 164.355 29.3802C164.06 30.9539 163.481 31.4815 162.919 31.5332C161.7 31.6454 160.774 30.7273 159.593 29.953C157.745 28.7414 156.7 27.9872 154.906 26.805C152.833 25.4386 154.177 24.6877 155.359 23.4604C155.668 23.1393 161.041 18.2519 161.145 17.8086C161.158 17.7531 161.17 17.5464 161.047 17.4373C160.925 17.3282 160.743 17.3655 160.613 17.3952C160.427 17.4372 157.474 19.3888 151.755 23.2499C150.916 23.8254 150.157 24.1058 149.477 24.0911C148.727 24.0749 147.285 23.6672 146.213 23.3186C144.898 22.8911 143.852 22.6651 143.944 21.9391C143.991 21.561 144.512 21.1742 145.506 20.7789Z" fill="white"/>
</g>
<g clip-path="url(#clip1_651_11747)">
<path d="M89 3.78164C94.6109 3.78164 95.2754 3.80625 97.482 3.90469C99.5328 3.99492 100.64 4.33945 101.379 4.62656C102.355 5.00391 103.06 5.46328 103.79 6.19336C104.529 6.93164 104.98 7.62891 105.357 8.60508C105.644 9.34336 105.989 10.459 106.079 12.5016C106.177 14.7164 106.202 15.3809 106.202 20.9836C106.202 26.5945 106.177 27.259 106.079 29.4656C105.989 31.5164 105.644 32.6238 105.357 33.3621C104.98 34.3383 104.52 35.0438 103.79 35.7738C103.052 36.5121 102.355 36.9633 101.379 37.3406C100.64 37.6277 99.5246 37.9723 97.482 38.0625C95.2672 38.1609 94.6027 38.1855 89 38.1855C83.3891 38.1855 82.7246 38.1609 80.518 38.0625C78.4672 37.9723 77.3598 37.6277 76.6215 37.3406C75.6453 36.9633 74.9398 36.5039 74.2098 35.7738C73.4715 35.0355 73.0203 34.3383 72.643 33.3621C72.3559 32.6238 72.0113 31.5082 71.9211 29.4656C71.8227 27.2508 71.798 26.5863 71.798 20.9836C71.798 15.3727 71.8227 14.7082 71.9211 12.5016C72.0113 10.4508 72.3559 9.34336 72.643 8.60508C73.0203 7.62891 73.4797 6.92344 74.2098 6.19336C74.948 5.45508 75.6453 5.00391 76.6215 4.62656C77.3598 4.33945 78.4754 3.99492 80.518 3.90469C82.7246 3.80625 83.3891 3.78164 89 3.78164ZM89 0C83.2988 0 82.5852 0.0246094 80.3457 0.123047C78.1145 0.221484 76.5805 0.582422 75.2516 1.09922C73.8652 1.64062 72.6922 2.3543 71.5273 3.52734C70.3543 4.69219 69.6406 5.86524 69.0992 7.24336C68.5824 8.58047 68.2215 10.1062 68.123 12.3375C68.0246 14.5852 68 15.2988 68 21C68 26.7012 68.0246 27.4148 68.123 29.6543C68.2215 31.8855 68.5824 33.4195 69.0992 34.7484C69.6406 36.1348 70.3543 37.3078 71.5273 38.4727C72.6922 39.6375 73.8652 40.3594 75.2434 40.8926C76.5805 41.4094 78.1063 41.7703 80.3375 41.8687C82.577 41.9672 83.2906 41.9918 88.9918 41.9918C94.693 41.9918 95.4066 41.9672 97.6461 41.8687C99.8773 41.7703 101.411 41.4094 102.74 40.8926C104.118 40.3594 105.291 39.6375 106.456 38.4727C107.621 37.3078 108.343 36.1348 108.876 34.7566C109.393 33.4195 109.754 31.8938 109.852 29.6625C109.951 27.423 109.975 26.7094 109.975 21.0082C109.975 15.307 109.951 14.5934 109.852 12.3539C109.754 10.1227 109.393 8.58867 108.876 7.25977C108.359 5.86523 107.646 4.69219 106.473 3.52734C105.308 2.3625 104.135 1.64062 102.757 1.10742C101.42 0.590625 99.8938 0.229688 97.6625 0.13125C95.4148 0.0246094 94.7012 0 89 0Z" fill="url(#paint1_linear_651_11747)"/>
<path d="M89 10.2129C83.0445 10.2129 78.2129 15.0445 78.2129 21C78.2129 26.9555 83.0445 31.7871 89 31.7871C94.9555 31.7871 99.7871 26.9555 99.7871 21C99.7871 15.0445 94.9555 10.2129 89 10.2129ZM89 27.9973C85.1363 27.9973 82.0027 24.8637 82.0027 21C82.0027 17.1363 85.1363 14.0027 89 14.0027C92.8637 14.0027 95.9973 17.1363 95.9973 21C95.9973 24.8637 92.8637 27.9973 89 27.9973Z" fill="url(#paint2_linear_651_11747)"/>
<path d="M102.732 9.78594C102.732 11.1805 101.6 12.3043 100.214 12.3043C98.8191 12.3043 97.6953 11.1723 97.6953 9.78594C97.6953 8.39141 98.8273 7.26758 100.214 7.26758C101.6 7.26758 102.732 8.39961 102.732 9.78594Z" fill="url(#paint3_linear_651_11747)"/>
</g>
<g clip-path="url(#clip2_651_11747)">
<path d="M42 21C42 9.40201 32.598 0 21 0C9.40201 0 0 9.40201 0 21C0 31.4815 7.67936 40.1695 17.7188 41.7449V27.0703H12.3867V21H17.7188V16.3734C17.7188 11.1103 20.854 8.20312 25.6508 8.20312C27.9476 8.20312 30.3516 8.61328 30.3516 8.61328V13.7812H27.7036C25.095 13.7812 24.2812 15.4001 24.2812 17.0625V21H30.1055L29.1744 27.0703H24.2812V41.7449C34.3206 40.1695 42 31.4815 42 21Z" fill="#1877F2"/>
<path d="M29.1744 27.0703L30.1055 21H24.2812V17.0625C24.2812 15.4018 25.095 13.7812 27.7036 13.7812H30.3516V8.61328C30.3516 8.61328 27.9485 8.20312 25.6508 8.20312C20.854 8.20312 17.7188 11.1103 17.7188 16.3734V21H12.3867V27.0703H17.7188V41.7449C19.893 42.085 22.107 42.085 24.2812 41.7449V27.0703H29.1744Z" fill="white"/>
</g>
<defs>
<linearGradient id="paint0_linear_651_11747" x1="157" y1="0" x2="157" y2="41.6885" gradientUnits="userSpaceOnUse">
<stop stop-color="#2AABEE"/>
<stop offset="1" stop-color="#229ED9"/>
</linearGradient>
<linearGradient id="paint1_linear_651_11747" x1="109.975" y1="20.9959" x2="68" y2="20.9959" gradientUnits="userSpaceOnUse">
<stop stop-color="#4D5EF6"/>
<stop offset="1" stop-color="#F64D4D"/>
</linearGradient>
<linearGradient id="paint2_linear_651_11747" x1="99.7871" y1="21" x2="78.2129" y2="21" gradientUnits="userSpaceOnUse">
<stop stop-color="#4D5EF6"/>
<stop offset="1" stop-color="#F64D4D"/>
</linearGradient>
<linearGradient id="paint3_linear_651_11747" x1="102.732" y1="9.78594" x2="97.6953" y2="9.78594" gradientUnits="userSpaceOnUse">
<stop stop-color="#4D5EF6"/>
<stop offset="1" stop-color="#F64D4D"/>
</linearGradient>
<clipPath id="clip0_651_11747">
<rect width="42" height="42" fill="white" transform="translate(136)"/>
</clipPath>
<clipPath id="clip1_651_11747">
<rect width="42" height="42" fill="white" transform="translate(68)"/>
</clipPath>
<clipPath id="clip2_651_11747">
<rect width="42" height="42" fill="white"/>
</clipPath>
</defs>
</svg>
